M48
;DRILL file {Pcbnew (2011-nov-30)-testing} date Sun 23 Sep 2012 07:58:08 PM CEST
;FORMAT={2:4/ absolute / inch / suppress leading zeros}
FMAT,2
INCH,TZ
T1C0.025
T2C0.032
T3C0.039
T4C0.045
T5C0.120
%
G90
G05
M72
T1
X11300Y-35200
X15400Y-35300
X16200Y-35600
X16200Y-36100
X16800Y-33600
X20100Y-37800
X24200Y-31800
X24200Y-32300
X24200Y-32800
X24200Y-33300
X24200Y-33800
X24200Y-34300
X24200Y-34800
X24200Y-35300
X26400Y-33300
X26400Y-33900
T2
X23400Y-37000
X23400Y-38000
X23400Y-39000
X24300Y-30200
X24700Y-37000
X24700Y-38000
X24700Y-39000
X25300Y-30200
X26300Y-30200
X29100Y-26700
X29100Y-27700
X29100Y-28700
X29100Y-29900
X29100Y-30900
X29100Y-31900
X29100Y-33100
X29100Y-34100
X29100Y-35100
T3
X13199Y-27516
X13199Y-29484
X26701Y-36913
X26701Y-38487
T4
X22100Y-39300
X22100Y-40300
X22100Y-41300
T5
X12200Y-25100
X12200Y-40800
X15600Y-40300
X27900Y-25100
X27900Y-40800
T0
M30
